<svg width="1600" height="1000" viewBox="0 0 1600 1000" fill="none" xmlns="http://www.w3.org/2000/svg">
  <rect width="1600" height="1000" rx="40" fill="#120D23"/>
  <rect x="52" y="52" width="1496" height="896" rx="30" fill="#181233" stroke="#37285E"/>
  <rect x="86" y="86" width="1428" height="66" rx="18" fill="#211845"/>
  <rect x="114" y="108" width="204" height="22" rx="11" fill="#A78BFA" fill-opacity="0.82"/>
  <rect x="1300" y="106" width="142" height="26" rx="13" fill="#302357"/>
  <rect x="86" y="184" width="434" height="312" rx="26" fill="#1C153A" stroke="#37285E"/>
  <rect x="550" y="184" width="460" height="312" rx="26" fill="#1C153A" stroke="#37285E"/>
  <rect x="1040" y="184" width="474" height="312" rx="26" fill="#1C153A" stroke="#37285E"/>
  <rect x="86" y="526" width="928" height="368" rx="26" fill="#1C153A" stroke="#37285E"/>
  <rect x="1044" y="526" width="470" height="368" rx="26" fill="#1C153A" stroke="#37285E"/>
  <rect x="120" y="218" width="156" height="18" rx="9" fill="#C4B5FD" fill-opacity="0.85"/>
  <rect x="120" y="272" width="164" height="106" rx="18" fill="#241B49"/>
  <rect x="302" y="272" width="184" height="106" rx="18" fill="#241B49"/>
  <rect x="120" y="396" width="366" height="66" rx="18" fill="#241B49"/>
  <rect x="146" y="302" width="82" height="14" rx="7" fill="#E9D5FF"/>
  <rect x="146" y="332" width="108" height="12" rx="6" fill="#5C4A8D"/>
  <rect x="328" y="302" width="92" height="14" rx="7" fill="#C4B5FD"/>
  <rect x="328" y="332" width="116" height="12" rx="6" fill="#5C4A8D"/>
  <rect x="584" y="218" width="150" height="18" rx="9" fill="#C4B5FD" fill-opacity="0.85"/>
  <path d="M602 430C664 372 736 392 788 334C846 270 920 292 958 250" stroke="#A78BFA" stroke-width="18" stroke-linecap="round"/>
  <circle cx="1192" cy="316" r="82" fill="#241B49"/>
  <circle cx="1192" cy="316" r="54" fill="#A78BFA" fill-opacity="0.3"/>
  <circle cx="1192" cy="316" r="28" fill="#E9D5FF"/>
  <rect x="1298" y="254" width="170" height="16" rx="8" fill="#C4B5FD" fill-opacity="0.85"/>
  <rect x="1298" y="290" width="148" height="12" rx="6" fill="#5C4A8D"/>
  <rect x="1298" y="314" width="122" height="12" rx="6" fill="#4A3A75"/>
  <rect x="1298" y="372" width="130" height="24" rx="12" fill="#22C55E" fill-opacity="0.18"/>
  <rect x="120" y="560" width="154" height="18" rx="9" fill="#C4B5FD" fill-opacity="0.85"/>
  <rect x="120" y="614" width="860" height="246" rx="22" fill="#241B49"/>
  <path d="M158 792H934" stroke="#4B3B76" stroke-width="18" stroke-linecap="round"/>
  <rect x="174" y="678" width="98" height="94" rx="16" fill="#2B2053"/>
  <rect x="298" y="642" width="98" height="130" rx="16" fill="#5B34D6" fill-opacity="0.45"/>
  <rect x="422" y="706" width="98" height="66" rx="16" fill="#2B2053"/>
  <rect x="546" y="604" width="98" height="168" rx="16" fill="#A78BFA" fill-opacity="0.5"/>
  <rect x="670" y="662" width="98" height="110" rx="16" fill="#2B2053"/>
  <rect x="794" y="628" width="98" height="144" rx="16" fill="#7C3AED" fill-opacity="0.5"/>
  <rect x="1078" y="560" width="150" height="18" rx="9" fill="#C4B5FD" fill-opacity="0.85"/>
  <rect x="1078" y="614" width="402" height="104" rx="18" fill="#241B49"/>
  <rect x="1078" y="738" width="402" height="122" rx="18" fill="#241B49"/>
  <rect x="1110" y="646" width="156" height="16" rx="8" fill="#E9D5FF"/>
  <rect x="1110" y="682" width="218" height="12" rx="6" fill="#5C4A8D"/>
  <rect x="1110" y="772" width="164" height="16" rx="8" fill="#C4B5FD" fill-opacity="0.85"/>
  <rect x="1110" y="808" width="248" height="12" rx="6" fill="#5C4A8D"/>
</svg>
