<svg width="1600" height="1000" viewBox="0 0 1600 1000" fill="none" xmlns="http://www.w3.org/2000/svg">
  <defs>
    <linearGradient id="bg" x1="236" y1="92" x2="1402" y2="988" gradientUnits="userSpaceOnUse">
      <stop stop-color="#120B24"/>
      <stop offset="0.52" stop-color="#1A1232"/>
      <stop offset="1" stop-color="#0E0A1B"/>
    </linearGradient>
    <radialGradient id="glow" cx="0" cy="0" r="1" gradientUnits="userSpaceOnUse" gradientTransform="translate(1288 840) rotate(-139.666) scale(460 340)">
      <stop stop-color="#A855F7" stop-opacity="0.26"/>
      <stop offset="1" stop-color="#A855F7" stop-opacity="0"/>
    </radialGradient>
  </defs>
  <rect width="1600" height="1000" rx="40" fill="url(#bg)"/>
  <rect width="1600" height="1000" rx="40" fill="url(#glow)"/>
  <rect x="204" y="116" width="1192" height="770" rx="34" fill="#161124" stroke="#9B6BFF" stroke-opacity="0.28"/>
  <rect x="220" y="132" width="1160" height="738" rx="26" fill="#0F0B18"/>
  <rect x="220" y="132" width="1160" height="60" rx="26" fill="#151126"/>
  <circle cx="262" cy="162" r="7" fill="#F58D8D"/>
  <circle cx="286" cy="162" r="7" fill="#FFD479"/>
  <circle cx="310" cy="162" r="7" fill="#77E2A4"/>
  <text x="282" y="248" fill="#F5EEFF" font-family="Inter, Arial, sans-serif" font-size="32" font-weight="700">Campaign command center</text>
  <text x="282" y="280" fill="#B4A4D2" font-family="Inter, Arial, sans-serif" font-size="18">Mock reporting and live operations surface with anonymized sample metrics.</text>

  <g>
    <rect x="282" y="316" width="220" height="124" rx="24" fill="#1A142C" stroke="#2B2143"/>
    <text x="314" y="356" fill="#B8A6D6" font-family="Inter, Arial, sans-serif" font-size="16">Active campaigns</text>
    <text x="314" y="404" fill="#F5EEFF" font-family="Inter, Arial, sans-serif" font-size="44" font-weight="700">08</text>
    <text x="314" y="428" fill="#8D7AAE" font-family="Inter, Arial, sans-serif" font-size="14">Within pacing target</text>
  </g>
  <g>
    <rect x="522" y="316" width="220" height="124" rx="24" fill="#1A142C" stroke="#2B2143"/>
    <text x="554" y="356" fill="#B8A6D6" font-family="Inter, Arial, sans-serif" font-size="16">Agents live</text>
    <text x="554" y="404" fill="#F5EEFF" font-family="Inter, Arial, sans-serif" font-size="44" font-weight="700">132</text>
    <text x="554" y="428" fill="#8D7AAE" font-family="Inter, Arial, sans-serif" font-size="14">Across generic teams</text>
  </g>
  <g>
    <rect x="762" y="316" width="220" height="124" rx="24" fill="#1A142C" stroke="#2B2143"/>
    <text x="794" y="356" fill="#B8A6D6" font-family="Inter, Arial, sans-serif" font-size="16">Answer rate</text>
    <text x="794" y="404" fill="#F5EEFF" font-family="Inter, Arial, sans-serif" font-size="44" font-weight="700">71%</text>
    <text x="794" y="428" fill="#8D7AAE" font-family="Inter, Arial, sans-serif" font-size="14">Weighted daily average</text>
  </g>
  <g>
    <rect x="1002" y="316" width="220" height="124" rx="24" fill="#1A142C" stroke="#2B2143"/>
    <text x="1034" y="356" fill="#B8A6D6" font-family="Inter, Arial, sans-serif" font-size="16">Queue health</text>
    <text x="1034" y="404" fill="#F5EEFF" font-family="Inter, Arial, sans-serif" font-size="44" font-weight="700">Good</text>
    <text x="1034" y="428" fill="#8D7AAE" font-family="Inter, Arial, sans-serif" font-size="14">Callbacks within SLA</text>
  </g>

  <rect x="282" y="470" width="652" height="310" rx="28" fill="#151021" stroke="#2B2143"/>
  <text x="318" y="514" fill="#F5EEFF" font-family="Inter, Arial, sans-serif" font-size="20" font-weight="600">Campaign pacing</text>
  <text x="318" y="540" fill="#AB9ACD" font-family="Inter, Arial, sans-serif" font-size="14">Generic outbound volume and connection trend</text>
  <g opacity="0.72">
    <path d="M330 708H902" stroke="#29223E"/>
    <path d="M330 650H902" stroke="#29223E"/>
    <path d="M330 592H902" stroke="#29223E"/>
    <path d="M330 534H902" stroke="#29223E"/>
  </g>
  <path d="M348 692C398 666 444 624 500 630C548 636 584 706 636 694C688 682 724 574 780 552C820 536 852 544 888 562" stroke="#8B5CF6" stroke-width="8" stroke-linecap="round"/>
  <path d="M348 720C406 712 448 704 492 674C540 642 572 592 616 598C666 604 706 690 762 694C816 698 848 650 894 612" stroke="#C084FC" stroke-width="6" stroke-linecap="round" opacity="0.75"/>

  <rect x="958" y="470" width="264" height="310" rx="28" fill="#151021" stroke="#2B2143"/>
  <text x="992" y="514" fill="#F5EEFF" font-family="Inter, Arial, sans-serif" font-size="20" font-weight="600">Team load</text>
  <g>
    <rect x="992" y="548" width="196" height="48" rx="18" fill="#1E1730"/>
    <text x="1020" y="577" fill="#F5EEFF" font-family="Inter, Arial, sans-serif" font-size="15">Team A</text>
    <rect x="1094" y="562" width="70" height="10" rx="5" fill="#8B5CF6"/>
  </g>
  <g>
    <rect x="992" y="612" width="196" height="48" rx="18" fill="#1E1730"/>
    <text x="1020" y="641" fill="#F5EEFF" font-family="Inter, Arial, sans-serif" font-size="15">Team B</text>
    <rect x="1094" y="626" width="92" height="10" rx="5" fill="#A78BFA"/>
  </g>
  <g>
    <rect x="992" y="676" width="196" height="48" rx="18" fill="#1E1730"/>
    <text x="1020" y="705" fill="#F5EEFF" font-family="Inter, Arial, sans-serif" font-size="15">Team C</text>
    <rect x="1094" y="690" width="56" height="10" rx="5" fill="#C084FC"/>
  </g>

  <rect x="282" y="804" width="940" height="40" rx="16" fill="#141021" stroke="#2B2143"/>
  <text x="316" y="830" fill="#A999CB" font-family="Inter, Arial, sans-serif" font-size="14">Portfolio note</text>
  <text x="460" y="830" fill="#F5EEFF" font-family="Inter, Arial, sans-serif" font-size="14">Operational values are illustrative and do not reflect production customer data.</text>
</svg>
